inDegrees=no
num_controls=7
num_derivatives=13
num_iterations=107
num_multipliers=7
num_parameters=0
num_slacks=7
num_states=26
objective=0.431166
objective_accelerations=0.049743
objective_balance=0.006868
objective_effort=0.031242
objective_height=0.342137
objective_ligament=0.001176
solver_duration=1370.895029
status=Solve_Succeeded
success=true
DataType=double
version=3
OpenSimVersion=4.5
endheader
time	/jointset/ground_pelvis/pelvis_tilt/value	/jointset/ground_pelvis/pelvis_tx/value	/jointset/ground_pelvis/pelvis_ty/value	/jointset/hip_l/hip_flexion_l/value	/jointset/hip_l/hip_adduction_l/value	/jointset/hip_l/hip_rotation_l/value	/jointset/back/lumbar_extension/value	/jointset/patellofemoral_l/patellar_flexion_l/value	/jointset/knee_l/knee_flexion_l/value	/jointset/knee_l/knee_adduction_l/value	/jointset/knee_l/knee_rotation_l/value	/jointset/ankle_l/ankle_angle_l/value	/jointset/subtalar_l/subtalar_angle_l/value	/jointset/ground_pelvis/pelvis_tilt/speed	/jointset/ground_pelvis/pelvis_tx/speed	/jointset/ground_pelvis/pelvis_ty/speed	/jointset/hip_l/hip_flexion_l/speed	/jointset/hip_l/hip_adduction_l/speed	/jointset/hip_l/hip_rotation_l/speed	/jointset/back/lumbar_extension/speed	/jointset/patellofemoral_l/patellar_flexion_l/speed	/jointset/knee_l/knee_flexion_l/speed	/jointset/knee_l/knee_adduction_l/speed	/jointset/knee_l/knee_rotation_l/speed	/jointset/ankle_l/ankle_angle_l/speed	/jointset/subtalar_l/subtalar_angle_l/speed	/forceset/tau_hip_flexion_l	/forceset/tau_hip_adduction_l	/forceset/tau_hip_rotation_l	/forceset/tau_knee_flexion_l	/forceset/tau_ankle_angle_l	/forceset/tau_subtalar_angle_l	/forceset/tau_lumbar_extension	lambda_cid13_p0	lambda_cid13_p1	lambda_cid13_p2	lambda_cid13_p3	lambda_cid13_p4	lambda_cid13_p5	lambda_cid14_p0	/jointset/ground_pelvis/pelvis_tilt/accel	/jointset/ground_pelvis/pelvis_tx/accel	/jointset/ground_pelvis/pelvis_ty/accel	/jointset/hip_l/hip_flexion_l/accel	/jointset/hip_l/hip_adduction_l/accel	/jointset/hip_l/hip_rotation_l/accel	/jointset/back/lumbar_extension/accel	/jointset/patellofemoral_l/patellar_flexion_l/accel	/jointset/knee_l/knee_flexion_l/accel	/jointset/knee_l/knee_adduction_l/accel	/jointset/knee_l/knee_rotation_l/accel	/jointset/ankle_l/ankle_angle_l/accel	/jointset/subtalar_l/subtalar_angle_l/accel	gamma_cid13_p0	gamma_cid13_p1	gamma_cid13_p2	gamma_cid13_p3	gamma_cid13_p4	gamma_cid13_p5	gamma_cid14_p0
1	-0.4538858005961294	-0.05655850743518484	0.5920387634190544	1.784418215079379	-0.2730839044037226	0.2214063631449869	-0.4363239304430658	1.418217453973408	1.418217453974243	-0.1745053987070549	0.1745316715883102	0.3042569612172817	0.04639222266810387	-0.0107612882745943	0.0009834798217811997	-0.003923905612060102	0.01797688830532889	0.001027946942090349	0.003837941198471475	0.0001705231919424208	0.010062520574501	0.01006252057450346	-1.503198550780494e-05	1.396498692227359e-06	0.003449258527633711	0.002231168921335553	-0.3345556032371028	0.01273936956773706	-0.01287176220341298	-0.3664298737485512	0.05539291632504997	0.01122146773422148	0.2976958516383457	-28.59542157326339	1.993888049431475	-2.845461038647627	16.6280718731241	-728.7886698363894	-48.66191377498575	-0.03935515488558627	1.068186512257832	-0.0176074074154638	1.798948339491942	-5.690286933005027	-0.5922600020598386	-2.06516201896687	-0.01894395833693563	-5.509779406655355	-5.509779406655292	-0.0599167994232505	0.01759162922437998	-1.189301483866772	-1.062453039861556	2.045016377921591e-11	2.264169526068377e-09	-1.083827784470602e-08	8.731109076661722e-12	1.721345054407853e-09	-4.9746476580872e-09	1.900300423063794e-09
1.01	-0.4539403898504338	-0.05654954637819598	0.5920893798512921	1.784314027482498	-0.2731024089475212	0.2213395588105854	-0.4363227526722201	1.41804293920647	1.418042939207259	-0.1745054515538915	0.1745317090413207	0.3042323067222101	0.0463626460177171	-0.0001559168147348127	0.0008115399875089642	0.014045625749543	-0.03881375120761608	-0.004726392962479033	-0.01719109629086934	6.060287128451771e-05	-0.04496345291114989	-0.04496345291114503	-3.902887156157135e-07	4.584029938058547e-06	-0.008379572229993413	-0.008142006104201753	-0.3344053438273726	0.01286191038050575	-0.0128969997042207	-0.366445470848399	0.05566682335356724	0.01113541010448248	0.2975940078292021	-28.50033359096262	2.022578400105778	-2.859132584204101	16.4981758097909	-728.6672543319742	-48.57940363927204	-0.03936524935956234	1.05680967458094	-0.01656448185676272	1.795718798826212	-5.673353884178661	-0.5666581102628803	-2.12062371981107	-0.007680284928249488	-5.498701611700537	-5.49870161170019	0.03142358463584188	-0.008554703333686171	-1.17958512954254	-1.024081137708306	-2.329041173533242e-09	-6.20040392136393e-10	4.488666517515601e-08	7.562887366301628e-09	-8.839149855896988e-09	3.55948993534317e-08	-7.654302640176889e-09
1.02	-0.4538889059477949	-0.05654222016163452	0.592319644250012	1.78364195320574	-0.2731783843154869	0.2210626942801111	-0.4363228069477707	1.417318225646238	1.417318225646983	-0.1745055041976794	0.1745317309659621	0.3040893816679955	0.04622947133631329	0.01045334311436239	0.0006565117363008963	0.03200568768441401	-0.09560044767013653	-0.01046621789134398	-0.03817409801594619	-7.588608929343996e-05	-0.09997723808402473	-0.09997723808401741	-1.499137570755361e-05	-1.709175150898674e-06	-0.02020485330089521	-0.01848843728207888	-0.3342550844176407	0.01298445119327424	-0.01292223720502872	-0.3664610679482475	0.05594073038208374	0.01104935247474302	0.2974921640200598	-28.41328183641888	2.053502323741018	-2.874104526804784	16.41813883985398	-728.6496195428383	-48.44642738886602	-0.03936907993189095	1.068964206105369	-0.01422509080262657	1.797054454145522	-5.689498322920126	-0.5893570069189525	-2.055954866114078	-0.02425768632093361	-5.507341744100141	-5.507341744100072	-0.06576535618007572	0.01569548195742538	-1.1885915465217	-1.05710427032952	-5.05098599414888e-09	-5.142196176230836e-09	9.696402050431162e-08	1.479088942152382e-08	-1.902412438983706e-08	7.285946410971957e-08	-1.685322571291022e-08
1.03	-0.4537312573647789	-0.0565363069963833	0.5927294047109694	1.782402081079739	-0.2733116302463193	0.2205762344609739	-0.4363242398690892	1.416043546396166	1.416043546396385	-0.1745057837108979	0.174531679148444	0.3038282227546187	0.04599306751938594	0.02108240629978657	0.0005341790320834265	0.04993919196527008	-0.1523686992763135	-0.01617483288617388	-0.05911092898144352	-0.000203363375168705	-0.1549456132337513	-0.1549456132337423	-3.787600412246464e-05	-6.516730548150645e-06	-0.0320261519206832	-0.02877748595830826	-0.3339887305468068	0.01296745987068879	-0.01300466545792738	-0.3662495614161051	0.05629575822814756	0.01116479463709186	0.2973511549375792	-28.27215987551695	1.961596800441549	-2.839966022273258	16.21304358444418	-728.3955374800945	-48.50635365354709	-0.03939625757094236	1.060783203748467	-0.01002425559611932	1.790410631032551	-5.669696706765973	-0.5604152131550459	-2.111526800534611	-0.005892529829557715	-5.489630330485843	-5.489630330485649	0.02989417556333565	-0.008282740553503891	-1.178779500834457	-1.012595621295685	-7.776731360512511e-09	-9.681065693650693e-09	1.49004155550909e-07	2.201556337264393e-08	-2.920526708320198e-08	1.100903045572806e-07	-2.60485193979853e-08
1.04	-0.4534671369841125	-0.05653137453724716	0.5933182826579307	1.780594684812218	-0.2735017226205779	0.2198806104144277	-0.4363267275192751	1.414219574408582	1.414219574408275	-0.1745062032320532	0.174531636482119	0.3034488747588185	0.04565421512469112	0.03174770264471198	0.0004603705132838766	0.06782918488520019	-0.2091052759744686	-0.02183550657660515	-0.08000694349762349	-0.0002868318653920196	-0.209835785586556	-0.2098357855865466	-4.299296311560417e-05	1.210634464993363e-07	-0.0438426697855559	-0.0389781528355795	-0.3337223766759693	0.01295046854810341	-0.01308709371083036	-0.3660380548839634	0.0566507860742103	0.01128023679944058	0.2972101458551021	-28.13914667834176	1.871953108225705	-2.807150195025596	16.05760047267652	-728.2456923786975	-48.51631838788452	-0.03941717421991888	1.076210838005606	-0.004520253719036899	1.788352181960333	-5.683163341315753	-0.5797687460392261	-2.04779157625061	-0.0154559271904722	-5.4917011847158	-5.491701184715951	-0.06221182229572078	0.01798455183581097	-1.187635395538631	-1.039427910537893	-1.073848174076291e-08	-1.499997445017195e-08	2.006780724801649e-07	2.959230955080386e-08	-3.991047261202813e-08	1.438893493691228e-07	-3.489211335682268e-08
1.05	-0.4530961733621404	-0.05652692357406919	0.5940858030663595	1.77822014493583	-0.2737481170980517	0.2189763210659569	-0.4363297216968959	1.411847074808821	1.411847074808759	-0.174506618522964	0.1745316834459276	0.3029512851282086	0.04521388337755731	0.04245215557758125	0.0004392651101958706	0.08566382419516413	-0.2657917211631693	-0.02742875070701449	-0.1008386017850527	-0.0002940849388884799	-0.2646532072365632	-0.2646532072365207	-3.693805548963331e-05	8.235908186677827e-06	-0.05568443287733231	-0.04906472479635059	-0.3333936445088009	0.01308071038522234	-0.01322525779166169	-0.3655695869691746	0.05694818173302661	0.01142942126319521	0.2970516496294801	-28.0101442131163	1.762805679393701	-2.764883290573635	15.88231484975552	-727.9088367856491	-48.50633675224504	-0.03946622903479723	1.068634078057643	0.0005182772554245768	1.779348680003721	-5.659738236398509	-0.5469435715340979	-2.099038395209208	0.009327810511956284	-5.475114751603016	-5.475114751597856	0.03246449810828093	-0.007988510977676708	-1.183818498757046	-0.9897783251934692	-1.370760727769727e-08	-2.034325943291512e-08	2.523405450932539e-07	3.718005798605878e-08	-5.063205510446244e-08	1.775811505673488e-07	-4.372471669921514e-08
1.06	-0.4526179508994147	-0.05652239887275023	0.5950313356427855	1.775279069981805	-0.274050012281828	0.2178640780465672	-0.4363322508436237	1.408926730573267	1.408926730573451	-0.1745068831946354	0.1745317688658287	0.3023350035201288	0.04467338461354646	0.05319947079565265	0.0004751181414822753	0.1034316184846942	-0.3224122915019203	-0.0329356478371161	-0.1215976776812881	-0.0001938256947361822	-0.319404712744965	-0.319404712744885	-1.286911520234631e-05	7.812282094844651e-06	-0.06758106527950516	-0.05901155621099202	-0.3330649123416325	0.0132109522223412	-0.01336342187249286	-0.3651011190543867	0.05724557739184236	0.01157860572694964	0.2968931534038581	-27.88941126944238	1.65597860256005	-2.723983095417741	15.75640455640027	-727.6778543403485	-48.44747612362458	-0.03950901661821908	1.084783295046019	0.006871433155852593	1.774983177873571	-5.669988371325782	-0.5624993459776794	-2.033275098011869	0.006046536339476663	-5.478517956394719	-5.478517956393988	-0.05860901576345581	0.01627685766941317	-1.198609257617906	-1.01147980131196	-1.714521237123638e-08	-2.565382856977248e-08	3.033330871879917e-07	4.464419352119855e-08	-6.011182042048363e-08	2.125945143908729e-07	-5.290024892104015e-08
1.07	-0.4520323319822425	-0.05651712784936944	0.5961541021508439	1.771772524910898	-0.274406482462329	0.2165448805808029	-0.4363322198180331	1.405459417845395	1.405459417845298	-0.1745069767872477	0.1745317914065258	0.3015995905888346	0.04403425073822549	0.06390158543778014	0.0005988286744186141	0.1210996763320834	-0.3788449433927685	-0.03833853874834917	-0.1422093477490859	0.0003209954106246653	-0.3740257790312804	-0.374025779031175	-1.336742015144916e-05	-3.80489670110242e-06	-0.07950001589143049	-0.06877966938128217	-0.3330407300396644	0.01342426924489064	-0.01354886443871842	-0.3641783197563424	0.05741941616981348	0.01181250215060283	0.2970960325827852	-27.79195259427764	1.504140880916979	-2.661862402099489	15.47506694934432	-727.3729456917573	-48.39715002342477	-0.03957075649790701	1.059518341840129	0.01809271015960149	1.759402030716094	-5.62213666847975	-0.5262582390576239	-2.07029127373686	0.09234458709626836	-5.449080346205458	-5.449080346202102	0.028075572381072	-0.01003760156752345	-1.188305818823239	-0.9541825029055956	-2.060773659012681e-08	-3.096265750206143e-08	3.542899946806896e-07	5.210175390207688e-08	-6.952553163137644e-08	2.476781740987214e-07	-6.209402204070731e-08
1.08	-0.4513403733600409	-0.05651002535129983	0.5974528862258849	1.767703206706978	-0.2748163964070148	0.2150205307518459	-0.436323411643492	1.401446858578368	1.401446858577992	-0.1745073062008602	0.1745316664562532	0.3007450345802523	0.04329849464559803	0.07446741180166733	0.0008414130792460859	0.1386351318812461	-0.4349669181042335	-0.04362440067404243	-0.1626281503198093	0.00156160409445846	-0.4284540205758171	-0.4284540205756903	-6.003331543178066e-05	-2.168591203407834e-05	-0.09140968073709188	-0.07833599967229463	-0.3330165477376995	0.01363758626744024	-0.01373430700494861	-0.3632555204582982	0.05759325494778488	0.01204639857425641	0.297298911761709	-27.70302791953837	1.354796881317954	-2.601281193265499	15.24284827747826	-727.1763891606421	-48.29924221366646	-0.03962607403061793	1.057525639397939	0.03064620753408799	1.748462718228278	-5.607852935449175	-0.5390935488697211	-1.994701598597005	0.1512040520340173	-5.439953008038976	-5.439953008039029	-0.0678425338296986	0.01502409036201299	-1.196752104365106	-0.9691232254564175	-2.449624767224597e-08	-4.022217999707867e-08	3.95969616648212e-07	5.786850669252483e-08	-7.805187747239863e-08	2.720503746133222e-07	-7.001947256172564e-08
